# xmcd CD database file
#
# Track frame offsets:
#	150
#	20033
#	37838
#	60795
#	80341
#	96024
#	112602
#	128285
#	144943
#	160969
#	182665
#	202846
#	221828
#	242675
#	261941
#
# Disc length: 3825 seconds
#
# Revision: 3
# Processed by: cddbd v1.5.2PL0 Copyright (c) Steve Scherf et al.
# Submitted via: CDex 2.21
#
DISCID=b40eef0f
DTITLE=Tim McGraw - Two lanes of freedom-Accelerate Deluxe
DYEAR=2013
DGENRE=Country
TTITLE0=Two Lanes Of Freedom
TTITLE1=One Of Those Nights
TTITLE2=Friend Of A Friend
TTITLE3=Southern Girl
TTITLE4=Truck Yeah (Optimized For Digital)
TTITLE5=Nashville Without You
TTITLE6=Book Of John
TTITLE7=Annie I Owe You A Dance
TTITLE8=Mexicoma
TTITLE9=Number 37405
TTITLE10=It's Your World
TTITLE11=Tinted Windows
TTITLE12=Highway Don't Care 
TTITLE13=Truck Yeah (Live Version)
TTITLE14=Let Me Love It Out Of You
EXTD=YEAR: 2013
EXTT0=
EXTT1=
EXTT2=
EXTT3=
EXTT4=
EXTT5=
EXTT6=
EXTT7=
EXTT8=
EXTT9=
EXTT10=
EXTT11=
EXTT12=
EXTT13=
EXTT14=
PLAYORDER=
